<svg xmlns="http://www.w3.org/2000/svg" xmlns:xlink="http://www.w3.org/1999/xlink" width="1em" height="1em" style="-ms-transform: rotate(360deg); -webkit-transform: rotate(360deg); transform: rotate(360deg);" preserveAspectRatio="xMidYMid meet" viewBox="0 0 384 456"><path d="M341 3q18 0 30.5 12.5T384 45v299q0 18-12.5 30.5T341 387h-85l-64 64-64-64H43q-18 0-30.5-12.5T0 344V45q0-17 12.5-29.5T43 3h298zM192 73q-24 0-41 17t-17 41 17 40.5 41 16.5 41-16.5 17-40.5-17-41-41-17zm128 228v-19q0-20-23.5-35.5t-52.5-23-52-7.5-52 7.5-52.5 23T64 282v19h256z" fill="#d0021b"/></svg>